<?xml version="1.0" encoding="utf-8"?>
<!-- Generator: Adobe Illustrator 16.0.1, SVG Export Plug-In . SVG Version: 6.00 Build 0)  -->
<!DOCTYPE svg PUBLIC "-//W3C//DTD SVG 1.1//EN" "http://www.w3.org/Graphics/SVG/1.1/DTD/svg11.dtd">
<svg version="1.1" id="Layer_1" xmlns="http://www.w3.org/2000/svg" xmlns:xlink="http://www.w3.org/1999/xlink" x="0px" y="0px"
	 width="225px" height="63.355px" viewBox="0 4.783 225 63.355" enable-background="new 0 4.783 225 63.355" xml:space="preserve">
<g>
	<g>
		<path fill="#FFFFFF" d="M123.681,33.333c0.898-0.748,1.795-1.291,3.866-1.495v3.399l-1.312,0.204
			c-1.863,0.339-2.415,0.611-2.415,2.243v7.341h-3.935V31.974h3.796L123.681,33.333L123.681,33.333z"/>
		<path fill="#FFFFFF" d="M136.863,38.84c0,1.36-0.069,2.583-1.38,3.399c-0.414,0.272-0.897,0.408-1.381,0.408
			c-0.897,0-1.449-0.68-1.449-1.36c0-1.02,1.036-1.359,1.657-1.631L136.863,38.84z M133.275,35.713
			c0.069-0.476,0.345-1.563,2.071-1.563c1.38,0,1.449,1.02,1.518,1.631v0.68c-1.656,0.272-4.141,0.748-5.245,1.224
			c-1.104,0.476-2.83,1.632-2.83,3.739c0,1.836,1.312,4.011,4.348,4.011c1.933,0,3.106-0.815,4.072-1.563v1.224h3.865
			c-0.276-0.476-0.414-0.68-0.414-2.04v-7.681c0-3.399-3.934-3.739-5.591-3.739c-1.587,0-3.105,0.204-4.349,1.156
			c-1.172,0.952-1.311,1.971-1.38,2.923H133.275z"/>
		<path fill="#FFFFFF" d="M144.731,28.167h3.934v4.079h2.554v2.379h-2.623v5.914c0,0.815,0,1.496,1.036,1.496l1.38-0.068v2.991
			c-0.828,0.136-1.38,0.204-2.07,0.204c-1.38,0-2.83-0.068-3.658-1.292c-0.552-0.748-0.552-1.699-0.552-2.991v-6.254h-1.932v-2.379
			h1.932V28.167L144.731,28.167z"/>
		<path fill="#FFFFFF" d="M159.295,34.625c0.552-0.068,1.449,0,2.278,0.748c0.759,0.68,1.104,1.835,1.104,3.331
			c0,2.039-1.035,3.739-3.175,3.739c-2.208,0-3.244-1.835-3.244-3.943c0-0.883,0.207-1.835,0.691-2.583
			C157.5,35.102,158.19,34.693,159.295,34.625z M160.054,31.566c-5.107-0.272-7.661,2.923-7.661,6.934
			c0,4.826,3.382,6.934,7.109,6.934c5.176,0,7.108-3.603,7.108-6.934C166.68,36.121,165.506,31.906,160.054,31.566z"/>
		<path fill="#FFFFFF" d="M172.96,33.333c0.897-0.748,1.794-1.291,3.866-1.495v3.399l-1.312,0.204
			c-1.864,0.339-2.416,0.611-2.416,2.243v7.341h-3.934V31.974h3.796V33.333L172.96,33.333z"/>
		<path fill="#FFFFFF" d="M178.757,27.352h3.866v2.99h-3.866V27.352z M178.757,31.974h3.866v13.12h-3.866V31.974z"/>
		<path fill="#FFFFFF" d="M194.149,32.042h3.934v13.051h-3.934V43.87c-0.414,0.408-0.622,0.68-1.312,1.02
			c-0.759,0.407-1.656,0.612-2.554,0.612c-0.828,0-2.484-0.136-3.382-1.36c-0.69-0.951-0.828-1.699-0.828-3.875v-8.225h3.934v8.089
			c0,0.543,0,1.155,0.276,1.563c0.208,0.272,0.76,0.68,1.587,0.68c0.208,0,0.76,0,1.38-0.339c0.829-0.476,0.898-1.156,0.898-1.835
			V32.042L194.149,32.042z"/>
		<path fill="#FFFFFF" d="M205.399,33.401c0.483-0.544,1.449-1.699,3.727-1.699c2.209,0,2.969,0.816,3.728,1.564
			c0.759-0.612,1.794-1.564,3.935-1.564c2.208,0,3.312,1.088,3.727,1.903c0.345,0.68,0.345,1.632,0.345,2.991v8.497h-3.865v-6.865
			c0-0.748,0-1.7-0.138-2.244c-0.345-1.087-1.38-1.155-1.725-1.155c-0.415,0-0.897,0.068-1.243,0.408
			c-0.758,0.543-0.758,1.359-0.758,2.787v7.138h-3.865v-7.817c0-0.544,0-1.36-0.414-1.836c-0.276-0.407-0.897-0.679-1.519-0.679
			c-0.276,0-0.689,0.068-1.035,0.272c-0.829,0.543-0.897,1.631-0.897,2.515v7.477h-3.865V32.042h3.865V33.401z"/>
		<path fill="#FFFFFF" d="M4.003,36.937c0.138-0.544,0.276-1.156,0.76-1.699c0.345-0.408,1.036-0.816,2.001-0.816
			c0.691,0,1.45,0.272,1.933,0.748c0.552,0.544,0.689,1.292,0.759,1.835H4.003V36.937z M10.353,40.268
			c-0.483,0.952-1.242,2.312-3.382,2.312s-3.037-1.632-3.037-3.331h9.525c-0.069-1.496-0.138-4.011-1.864-5.847
			c-1.726-1.767-4.003-1.903-4.762-1.903C1.588,31.566,0,35.645,0,38.772c0,4.351,2.761,6.798,6.695,6.798
			c2.139,0,3.866-0.816,5.039-1.835c0.69-0.612,1.173-1.292,1.587-1.971L10.353,40.268z"/>
		<path fill="#FFFFFF" d="M26.779,32.042l-4.003,6.118l4.486,6.934h-4.21l-2.553-4.079l-2.209,4.079h-4.348l4.556-7.07l-4.003-5.981
			h4.417l1.725,3.331l1.863-3.331H26.779z"/>
		<path fill="#FFFFFF" d="M36.027,34.558c1.588,0.408,2.071,2.243,2.071,3.942c0,2.04-0.828,4.079-2.761,4.079
			c-0.621,0-1.312-0.272-1.795-0.748c-0.482-0.544-0.966-1.563-0.966-3.195c0-1.223,0.276-2.379,0.828-3.059
			c0.552-0.748,1.312-1.02,2.001-1.02C35.683,34.489,35.89,34.489,36.027,34.558z M32.37,32.042h-3.451v17.605h3.934v-5.37
			c1.035,0.612,1.794,1.087,3.313,1.087c4.555,0,5.728-4.146,5.728-6.866c0-4.351-2.484-6.798-5.797-6.798
			c-1.519,0-2.692,0.544-3.382,1.155c-0.138,0.069-0.276,0.204-0.345,0.409V32.042z"/>
		<path fill="#FFFFFF" d="M48.313,27.352v17.742h-3.935V27.352H48.313z"/>
		<path fill="#FFFFFF" d="M83.996,68.138c17.737,0,32.162-14.207,32.162-31.678c0-17.47-14.425-31.677-32.162-31.677
			C66.258,4.715,51.833,18.922,51.833,36.393C51.833,53.931,66.258,68.138,83.996,68.138z M55.629,36.393
			c0-15.431,12.699-27.938,28.367-27.938c15.667,0,28.366,12.508,28.366,27.938c0,15.431-12.699,27.938-28.366,27.938
			C68.398,64.331,55.629,51.824,55.629,36.393z"/>
	</g>
	<path fill="#FFFFFF" d="M222.86,31.499c-1.104,0-2.139-0.884-2.139-2.107s0.966-2.107,2.139-2.107c1.243,0,2.14,0.952,2.14,2.107
		C225,30.546,224.104,31.499,222.86,31.499z M222.86,27.42c-1.104,0-1.932,0.884-1.932,1.903c0,1.088,0.897,1.903,1.932,1.903
		c1.104,0,1.933-0.884,1.933-1.903C224.862,28.304,224.034,27.42,222.86,27.42z M222.86,28.031c0.276,0,0.483,0,0.622,0.068
		c0.276,0.068,0.414,0.339,0.414,0.611c0,0.34-0.208,0.544-0.552,0.612c0.208,0.068,0.345,0.204,0.415,0.544
		c0.069,0.408,0.069,0.544,0.206,0.815h-0.552c0-0.068-0.069-0.136-0.138-0.34c0-0.067-0.069-0.339-0.069-0.407
		c-0.069-0.408-0.276-0.408-0.622-0.408h-0.138v1.224h-0.483V28.1h0.897V28.031z M222.447,29.119h0.414c0.208,0,0.552,0,0.552-0.34
		c0-0.068-0.069-0.272-0.207-0.34c-0.069-0.068-0.138-0.068-0.483-0.068h-0.276V29.119z"/>
</g>
</svg>
